<svg id="Capa_1" enable-background="new 0 0 512 512" height="512" viewBox="0 0 512 512" width="512" xmlns="http://www.w3.org/2000/svg"><path d="m484.5 276h-457c-11.046 0-20-8.954-20-20 0-11.046 8.954-20 20-20h457c11.046 0 20 8.954 20 20 0 11.046-8.954 20-20 20z" fill="#ffbd86"/><circle cx="256" cy="256" fill="#f85647" r="223.5"/><path d="m364.5 330c0-39.214 30.094-71.398 68.447-74.717 3.681-.319 6.534-3.399 6.379-7.091-2.828-67.221-41.986-125.204-98.306-154.775-4.556-2.392-10.02.979-10.02 6.125 0 41.421-33.579 75-75 75-41.421 0-75-33.579-75-75v-.003c0-5.144-5.463-8.515-10.018-6.123-56.321 29.571-95.48 87.555-98.308 154.776-.155 3.692 2.698 6.772 6.379 7.091 38.353 3.32 68.447 35.504 68.447 74.717v1.227c0 59.411 47.874 107.881 107.284 108.269.405.003.81.004 1.216.004s.811-.001 1.216-.004c59.41-.388 107.284-48.858 107.284-108.269z" fill="#ff938a"/><path d="m52.5 256c0-120.083 94.707-218.034 213.5-223.266-3.316-.146-6.648-.234-10-.234-123.436 0-223.5 100.064-223.5 223.5s100.064 223.5 223.5 223.5c3.352 0 6.684-.088 10-.234-118.793-5.232-213.5-103.183-213.5-223.266z" fill="#f54432"/><path d="m92.5 256c0-66.421 35.473-124.712 88.469-156.925-.32-4.877-5.572-7.977-9.987-5.659-56.321 29.571-95.48 87.555-98.308 154.776-.155 3.692 2.698 6.772 6.379 7.091 4.624.4 9.123 1.229 13.469 2.43-.006-.572-.022-1.14-.022-1.713z" fill="#fd7a6e"/><path d="m355.367 273.171h-11.355c-4.143 0-7.5-3.358-7.5-7.5s3.357-7.5 7.5-7.5h11.355c4.143 0 7.5 3.358 7.5 7.5s-3.357 7.5-7.5 7.5z" fill="#fff"/><path d="m167.988 273.171h-11.355c-4.143 0-7.5-3.358-7.5-7.5s3.357-7.5 7.5-7.5h11.355c4.143 0 7.5 3.358 7.5 7.5s-3.357 7.5-7.5 7.5z" fill="#fff"/><path d="m512 256c0-14.877-11.877-27.024-26.646-27.478-5.535-46.315-24.965-90.037-56.104-125.319-2.741-3.106-7.482-3.402-10.586-.66-3.105 2.741-3.401 7.48-.66 10.586 30.54 34.602 49.042 77.888 53.13 123.55.004.041.005.083.01.124.565 6.358.856 12.763.856 19.197 0 119.103-96.897 216-216 216s-216-96.897-216-216 96.897-216 216-216c52.679 0 103.417 19.176 142.869 53.995 3.107 2.741 7.845 2.445 10.586-.66s2.445-7.845-.66-10.586c-42.195-37.24-96.459-57.749-152.795-57.749-61.702 0-119.712 24.028-163.342 67.658-37.085 37.086-59.998 84.563-66.04 135.864-14.756.469-26.618 12.61-26.618 27.478s11.862 27.009 26.618 27.478c6.042 51.301 28.955 98.778 66.04 135.864 43.63 43.63 101.64 67.658 163.342 67.658s119.712-24.028 163.342-67.658c37.085-37.086 59.998-84.563 66.04-135.864 14.756-.469 26.618-12.61 26.618-27.478zm-497 0c0-6.151 4.469-11.266 10.328-12.298-.213 4.081-.328 8.181-.328 12.298s.115 8.217.328 12.298c-5.859-1.032-10.328-6.147-10.328-12.298zm471.672 12.298c.213-4.081.328-8.181.328-12.298 0-4.113-.123-8.213-.34-12.3 5.865 1.028 10.34 6.146 10.34 12.3 0 6.151-4.469 11.266-10.328 12.298z"/><path d="m173.533 412.771c21.648 21.87 50.487 34.024 81.206 34.225l1.261.004 1.265-.004c30.715-.201 59.554-12.355 81.202-34.225 21.624-21.844 33.533-50.804 33.533-81.544v-1.227c0-34.718 27.056-64.256 61.595-67.245 7.738-.67 13.548-7.206 13.225-14.878-2.85-67.731-42.054-129.461-102.313-161.1-2.049-1.076-4.341-1.645-6.628-1.645-7.929 0-14.379 6.464-14.379 14.41 0 37.219-30.28 67.5-67.5 67.5s-67.5-30.28-67.5-67.502c0-7.945-6.449-14.408-14.377-14.408-2.287 0-4.578.569-6.627 1.644-60.261 31.64-99.466 93.37-102.315 161.102-.323 7.672 5.486 14.208 13.226 14.878 34.537 2.988 61.593 32.526 61.593 67.244v1.227c0 30.74 11.909 59.7 33.533 81.544zm-40.359-138.673c-13.879-15.056-32.676-24.363-52.978-26.243 2.832-61.789 38.507-118.081 93.31-147.29.551 45.021 37.345 81.477 82.494 81.477s81.943-36.455 82.494-81.476c54.802 29.209 90.478 85.501 93.31 147.29-20.303 1.88-39.099 11.187-52.978 26.243-14.075 15.268-21.826 35.121-21.826 55.901v1.227c0 55.205-44.785 100.41-99.829 100.769l-1.171.004-1.167-.004c-55.048-.359-99.833-45.564-99.833-100.769v-1.227c0-20.78-7.751-40.633-21.826-55.902z"/><path d="m256 253.667c-44.756 0-81.167 36.411-81.167 81.167 0 4.142 3.357 7.5 7.5 7.5s7.5-3.358 7.5-7.5c0-36.484 29.683-66.167 66.167-66.167s66.167 29.683 66.167 66.167c0 4.142 3.357 7.5 7.5 7.5s7.5-3.358 7.5-7.5c0-44.756-36.411-81.167-81.167-81.167z"/><path d="m349.68 225.351h-79.68c-4.143 0-7.5 3.358-7.5 7.5s3.357 7.5 7.5 7.5h72.189v3.855c0 4.142 3.357 7.5 7.5 7.5s7.5-3.358 7.5-7.5v-3.855h13.5c4.143 0 7.5-3.358 7.5-7.5s-3.357-7.5-7.5-7.5h-20.99c-.003 0-.006 0-.01 0s-.006 0-.009 0z"/><path d="m162.311 251.706c4.143 0 7.5-3.358 7.5-7.5v-3.855h72.189c4.143 0 7.5-3.358 7.5-7.5s-3.357-7.5-7.5-7.5h-79.68c-.003 0-.006 0-.01 0s-.006 0-.01 0h-20.992c-4.143 0-7.5 3.358-7.5 7.5s3.357 7.5 7.5 7.5h13.502v3.855c.001 4.142 3.358 7.5 7.501 7.5z"/><path d="m171.309 210.351h169.381c4.143 0 7.5-3.358 7.5-7.5s-3.357-7.5-7.5-7.5h-169.381c-4.143 0-7.5 3.358-7.5 7.5s3.357 7.5 7.5 7.5z"/></svg>