<svg id="Capa_1" enable-background="new 0 0 511.988 511.988" height="512" viewBox="0 0 511.988 511.988" width="512" xmlns="http://www.w3.org/2000/svg"><g><ellipse cx="262.038" cy="256.01" fill="#f6ee86" rx="241.993" ry="236.742"/><path d="m424.503 431.469c-335.979 20.513-365.176-239.531-228.411-403.305-101.602 28.085-176.047 119.459-176.047 227.846 0 130.749 108.344 236.742 241.993 236.742 62.527 0 119.519-23.202 162.465-61.283z" fill="#eed076"/><g><g fill="#e7889d"><ellipse cx="134.53" cy="321.938" rx="47.048" ry="37.467"/><ellipse cx="389.546" cy="321.938" rx="47.048" ry="37.467"/></g></g><path d="m55.551 110.414c-20.764 28.164-35.677 60.724-42.975 95.961 31.449-13.512 133.995-43.974 249.455-43.974 92.558 0 176.817 19.576 222.803 34.303 11.721 3.754 22.804-7.402 18.853-19.058-9.884-29.158-25.129-55.943-44.583-79.232-55.859-13.274-126.128-23.814-197.073-23.814-65.131 0-129.692 8.883-183.058 20.609-9.39 2.064-17.716 7.466-23.422 15.205z" fill="#8daee1"/><path d="m459.104 98.414c-55.859-13.274-126.128-23.814-197.073-23.814-30.998 0-61.865 2.015-91.459 5.388-49.26 21.656-96.109 45.533-139.22 70.744-8.38 17.54-14.745 36.18-18.776 55.643 31.449-13.512 133.995-43.974 249.455-43.974 14.564 0 28.92.486 42.956 1.36 75.822-27.408 135.567-41.083 167.464-47.856-4.194-6.023-8.645-11.861-13.347-17.491z" fill="#6a95d6"/><path d="m459.06 98.36c-21.599-25.843-48.385-47.369-78.785-63.052-6.734-3.474-14.542-4.198-21.827-2.111-59.633 17.085-119.79 38.772-178.057 64.322-57.689 25.297-112.216 53.691-161.22 83.821-7.576 23.585-11.669 48.667-11.669 74.67 0 4.439.121 8.851.358 13.234.564 10.403 12.189 16.272 20.811 10.424 54.057-36.663 117.935-71.461 186.98-101.739 79.902-35.038 163.396-62.294 243.409-79.569z" fill="#a2ddfd"/><path d="m158.457 296.196c12.633 0 24.647-5.472 32.962-15.014 2.721-3.123 2.396-7.86-.727-10.582-3.122-2.721-7.86-2.397-10.581.727-5.465 6.272-13.358 9.868-21.654 9.868s-16.189-3.597-21.654-9.869c-2.722-3.123-7.459-3.447-10.582-.727-3.122 2.722-3.448 7.459-.726 10.582 8.315 9.543 20.33 15.015 32.962 15.015zm207.162 0c12.634 0 24.648-5.472 32.963-15.014 2.722-3.123 2.396-7.86-.727-10.582-3.124-2.721-7.86-2.397-10.582.727-5.465 6.272-13.357 9.868-21.654 9.868s-16.19-3.597-21.654-9.868c-2.723-3.124-7.46-3.448-10.582-.727s-3.448 7.459-.727 10.582c8.315 9.542 20.329 15.014 32.963 15.014zm145.17-120.958c-2.972-8.769-6.474-17.478-10.408-25.887-1.756-3.752-6.219-5.369-9.972-3.615-3.751 1.755-5.37 6.22-3.614 9.972 3.7 7.909 6.993 16.1 9.789 24.346 1.973 5.82-3.578 11.389-9.463 9.507-23.078-7.391-100.587-29.981-195.945-34.032 55.014-20.358 110.949-36.949 164.976-48.852 4.787 5.95 9.331 12.133 13.508 18.459 2.286 3.462 6.94 4.405 10.392 2.125 3.457-2.282 4.408-6.935 2.126-10.391-23.72-35.915-56.948-66.809-98.465-88.228-8.428-4.347-18.136-5.29-27.331-2.656-1.906.546-3.811 1.109-5.716 1.664-91.428-34.034-197.636-13.108-268.562 59.209-1.612.345-3.201.688-4.739 1.026-11.175 2.455-21.065 8.876-27.85 18.079-35.089 47.595-52.317 105.085-49.144 163.686.484 8.934 6.257 16.089 14.377 18.785 6.345 46.868 26.302 90.537 57.936 126.607 2.741 3.124 7.48 3.416 10.584.693 3.114-2.731 3.424-7.47.693-10.584-29.411-33.534-48.058-74.053-54.183-117.539 7.125-3.267 84.979-61.388 224.125-117.655 77.874-.991 163.471 13.018 228.641 33.89 2.867.918 5.423 1.173 8.12 1.029 33.642 144.385-78.815 280.377-228.628 280.377-55.678 0-109.648-19.412-151.968-54.659-3.183-2.65-7.912-2.22-10.563.963s-2.219 7.912.963 10.563c45.01 37.487 102.389 58.132 161.568 58.132 161.621 0 280.15-147.796 242.631-301.293 6.904-6.343 8.878-15.594 6.122-23.721zm-185.347-139.982c-31.039 9.683-61.964 20.513-92.544 32.424-46.66 1.8-89.183 7.578-122.69 13.64 59.913-49.908 140.871-66.461 215.234-46.064zm-263.854 79.609c4.627-6.276 11.373-10.655 18.996-12.33 34.006-7.473 71.098-13.431 108.419-16.918-52.36 22.411-105.082 48.59-155.328 78.235 7.305-17.288 16.645-33.703 27.913-48.987zm-37.127 158.596c-3.773 2.558-8.86.019-9.111-4.623-1.495-27.561 1.8-55.549 10.133-82.57 95.21-58.218 212.387-110.723 335.03-145.861 5.508-1.579 11.305-1.022 16.323 1.566 25.807 13.314 48.706 30.712 68.218 51.812-151.125 34.432-306.396 102.225-420.593 179.676zm201.275 62.876c9.29-13.354 22.522-21.014 36.302-21.014s27.012 7.659 36.303 21.014c2.364 3.4 7.04 4.24 10.439 1.874 3.4-2.366 4.239-7.04 1.873-10.44-12.135-17.443-29.855-27.447-48.615-27.447-18.761 0-36.48 10.004-48.615 27.447-2.365 3.4-1.527 8.074 1.874 10.44 3.411 2.373 8.082 1.515 10.439-1.874z"/></g></svg>