<svg id="Capa_1" enable-background="new 0 0 512.013 512.013" height="512" viewBox="0 0 512.013 512.013" width="512" xmlns="http://www.w3.org/2000/svg"><g><ellipse cx="256.01" cy="242.035" fill="#a2ddfd" rx="228.989" ry="224.02"/><path d="m409.744 408.066c-317.924 19.41-345.552-226.66-216.136-381.633-96.142 26.576-166.587 113.04-166.587 215.602 0 123.723 102.522 224.02 228.989 224.02 59.167.001 113.096-21.955 153.734-57.989z" fill="#7acdf9"/><g><g><ellipse cx="127.128" cy="215.984" fill="#6a95d6" rx="47.555" ry="37.87"/><ellipse cx="384.892" cy="215.984" fill="#6a95d6" rx="47.555" ry="37.87"/><path d="m298.938 207.672c0-9.9-5.18-19.089-13.666-24.19-8.55-5.14-18.559-8.097-29.263-8.097s-20.713 2.958-29.263 8.097c-8.485 5.101-13.666 14.289-13.666 24.19v136.605c0 23.709 19.22 42.928 42.928 42.928 23.709 0 42.928-19.22 42.928-42.928v-136.605z" fill="#4e5660"/><g fill="#fff"><circle cx="154.502" cy="150.864" r="45.58"/><circle cx="357.518" cy="150.864" r="45.58"/></g></g></g><path d="m76.284 272.196 31.011 27.579c20.549 18.483 26.875 23.107 34.496 32.47 27.968 33.671 26.497 69.603 26.926 71.477 1.357 23.171 1.467 25.037 2.123 36.251 1.648 28.14-19.828 52.289-47.968 53.937-29.753 1.743-55.558-22.475-53.937-53.937.007-.138 2.121-36.441 2.181-36.947.98-5.618-.147-11.572-4.06-17.282-.122-.138-8.252-9.284-7.734-8.701-12.957-14.57-28.452-31.993-41.369-46.517-15.164-17.05-13.634-43.166 3.417-58.33 15.831-14.079 39.475-13.762 54.914 0z" fill="#a2ddfd"/><path d="m435.736 272.196-31.011 27.579c-20.549 18.483-26.875 23.107-34.496 32.47-27.968 33.671-26.497 69.603-26.926 71.477-1.357 23.171-1.467 25.037-2.123 36.251-1.648 28.14 19.828 52.289 47.968 53.937 29.753 1.743 55.558-22.475 53.937-53.937-.007-.138-2.121-36.441-2.181-36.947-.98-5.618.147-11.572 4.06-17.282.122-.138 8.252-9.284 7.734-8.701 12.957-14.57 28.452-31.993 41.369-46.517 15.164-17.051 13.634-43.167-3.417-58.331-15.831-14.078-39.475-13.761-54.914.001z" fill="#7acdf9"/><path d="m222.883 177.053c-10.672 6.415-17.302 18.147-17.302 30.619v136.604c0 27.806 22.622 50.428 50.429 50.428s50.429-22.622 50.429-50.428v-136.604c0-12.471-6.63-24.203-17.302-30.618-20.328-12.22-45.907-12.231-66.254-.001zm68.556 167.223c0 19.535-15.893 35.428-35.429 35.428-19.535 0-35.429-15.893-35.429-35.428v-136.604c0-7.237 3.843-14.043 10.03-17.763 15.575-9.362 35.207-9.371 50.797.001 6.188 3.719 10.03 10.525 10.03 17.762v136.604zm-148.437-193.412c0 6.352 5.149 11.501 11.501 11.501s11.501-5.149 11.501-11.501-5.149-11.501-11.501-11.501-11.501 5.149-11.501 11.501zm203.015 0c0 6.352 5.149 11.501 11.501 11.501s11.5-5.149 11.5-11.501-5.149-11.501-11.5-11.501c-6.352 0-11.501 5.149-11.501 11.501zm145.463 112.43c4.895-52.397-8.283-103.859-36.925-147.088-2.288-3.453-6.943-4.397-10.395-2.109-3.453 2.288-4.397 6.941-2.109 10.395 25.695 38.782 38.109 84.725 34.947 131.756-15.731-4.634-33.304-1.191-46.253 10.35l-31.036 27.602c-20.569 18.502-27.227 23.396-35.25 33.254-12.186 14.671-27.031 39.476-28.544 74.332-.021.496-2.213 37.591-2.223 37.751-.105 1.789-.119 3.568-.064 5.337-48.55 17.778-104.111 18.721-155.237 0 .17-5.471-1.963-35.59-2.287-43.088-1.514-34.855-16.358-59.66-28.496-74.273-8.086-9.934-14.725-14.805-35.329-33.34l-31.005-27.573c-12.95-11.542-30.522-14.985-46.253-10.351-8.435-125.486 93.319-230.734 220.989-230.734 62.749 0 122.811 26.186 164.787 71.842 2.806 3.049 7.549 3.248 10.598.445s3.248-7.548.445-10.597c-44.809-48.737-108.895-76.69-175.83-76.69-138.418 0-248.24 116.073-235.47 252.779-22.084 15.735-26.926 45.987-11.765 67.691 2.371 3.396 7.048 4.226 10.443 1.854 3.396-2.372 4.226-7.048 1.854-10.443-9.8-14.029-7.529-33.201 5.283-44.594 12.582-11.191 31.944-11.589 44.945 0l30.979 27.551c20.473 18.414 26.535 22.831 33.742 31.686 10.714 12.898 23.765 34.714 25.097 65.397.039.886-.228-3.616 2.234 37.978 1.408 24.019-16.893 44.604-40.919 46.011-25.07 1.48-47.41-18.855-46.01-46.035.109-1.941 1.923-32.994 2.148-36.477 1.246-7.756-.592-15.495-5.329-22.407-.069-.101-28.285-32.306-28.375-32.407-2.754-3.094-7.494-3.373-10.589-.62-3.095 2.752-3.372 7.493-.62 10.588.572.643 21.444 24.521 21.343 24.407 1.832 2.06 5.05 5.68 6.112 6.875 2.412 3.677 3.291 7.506 2.613 11.388-.166.976-2.277 37.751-2.282 37.851-1.814 35.18 26.116 61.911 58.454 61.91 26.457 0 48.777-17.524 56.04-41.581 51.575 18.19 108.515 18.208 160.14 0 6.83 22.621 27.228 39.994 52.629 41.482 33.971 1.979 63.731-25.627 61.866-61.796-.005-.1-2.115-36.88-2.283-37.865-.678-3.882.201-7.711 2.613-11.388.091-.102 7.924-8.915 7.402-8.328l41.363-46.51c19.112-21.488 15.765-55.152-8.188-72.218zm-315.451 138.759c.028.122.071.3.103.536-.028-.179-.062-.358-.103-.536zm159.86.536c.031-.236.074-.414.103-.536-.042.178-.076.357-.103.536zm152.573-77.047-41.369 46.517.009.007c-.001 0-.001.001-.002.002l-.009-.007c-2.52 2.866-7.79 8.678-8.314 9.443-4.737 6.912-6.575 14.651-5.329 22.407.226 3.479 2.039 34.535 2.146 36.449 1.406 27.274-20.982 47.529-46.008 46.063-21.282-1.246-37.768-17.447-40.566-37.298-1.092-10.738.516-15.454 1.881-46.691 1.331-30.684 14.383-52.499 25.144-65.455 6.332-7.781 6.465-7.411 64.68-59.185 20.948-18.673 54.57-4.957 56.226 23.298.529 9.017-2.486 17.701-8.489 24.45z"/></g></svg>